<?xml version="1.0" encoding="UTF-8"?><svg id="a" xmlns="http://www.w3.org/2000/svg" viewBox="0 0 333.62 261.77"><defs><style>.b{fill:#fff;}</style></defs><ellipse class="b" cx="166.81" cy="130.89" rx="174.73" ry="120.03" transform="translate(-39.04 80.06) rotate(-24.25)"/><path d="M139.34,44.42c7.72,1.73,8.05-.99,8.9,8,.74,4.25-3.01,7.85-4.57,11.61-1.37,3.2-3.01,8,2,6.19,3.62-.25,7.06-.99,10.46-2.29,18.95-3.89,37.69-9.23,56.92-12.34,10.85-2.63,36.72-7.33,38.55,8.46-1.79,10.66-12.98,3.12-19.71,4.17-23.84,1.84-46.81,10.09-69.96,15.39-13.64,3.48-33.27,2.65-37.7,19.2-4.95,12.67-11.1,28.16-15.28,37.35-10.82,23.82-20.28,48.91-32.45,72.05-2.98,11.19-10.9,21.45-22.7,23.97-25.7,1.81-18.43-67.42-18.86-84.55.89-9.77,2.14-19.45,2.67-29.27q.45-5.62,1.98-11.77c1.71-6.83,4.44-15.28,12.37-17.31,6.59-1.24,12.17-6.11,18.84-7.18,14.5-2.85,29.87-4.81,43.89-9.25,3.17-2.26,5.26-6.49,6.33-10.09.34-1.88-.19-4.02,1.53-5.33,6-5.78,5.16-17.86,16.78-17ZM107.69,93.85c-4.81.31-10.07-.22-14.77,1.65-6.04,2.51-11.77,1.47-17.67,3.54-4.11,1.34-6.1,3.28-9.58,5.25-2.23,1.12-4.74,2.1-6.59,3.87-5.29,4.47-7.12,7.99-6.86,16,.04,1.16.41-1.04,0,0-1.2,2.27-3.31,14.89-3.53,17.5-.68,5.49-.87,10.6-.85,16.05-.19,5.84-.46,11.11-.11,16.9.26,6.96.6,13.58.77,20.44.17,4.19,1.76,7.67,2.92,11.5,2.96,14.27,7.66,8.01,12.05-1.48,1.41-2.86,2.12-6.5,3.48-9.23,1.72-5.23,4.19-10.05,6.82-15,1.71-4.39,3.22-8.42,4.61-12.82,2.72-7.83,7.08-14.72,10-22.58,3.24-8.96,7.53-17.26,11.04-26.05,1.4-3.89,2.36-8.05,4.68-11.21,1.6-2.12,8.22-13.68,3.68-14.32h-.08Z"/><path d="M302.22,55.23c6.41.04,9.67,8.11,5.96,12.95-3.11,4.11-7.15,5.3-11.61,8.66-6.16,4.56-10.61,9.92-16.1,14.81-5.86,5.06-11.48,10.63-16.76,16.58-4.15,4.88-8.75,9.97-12.67,15.23-3.63,5.39-6.25,9.6-10.65,14.75-13.56,16.63-24.7,34.99-37.19,52.39-6.87,9.5-14.8,29.33-27.33,30.95-9.33-.48-10.32-13.72-8.43-20.91,2.77-12.05,6.42-22.49,10.63-34.29,3.17-8.3,5.63-17,8.71-25.23,3.99-10.22,8.53-20.32,12.82-30.54,3.06-6.62,5.28-13.99,9.49-19.97,5.72-8.75,18.1-4.27,17.33,5.52-.52,2.57-2.34,4.18-3.79,6.37-5.29,8.17-9.02,19.7-12.72,28.94-2.37,6.36-6.23,12.91-8.47,19.58-.82,2.97-2.85,11.34,1.3,9.55,3.81-2.81,6.19-7.49,9.32-11.13,6.01-8.1,12.03-16.36,18.09-24.32,9.02-12.67,19.51-23.73,30.14-35.27,7.12-8.2,14.22-16.51,22.6-23.06,5.66-4.67,11.36-11.42,19.22-11.55h.13Z"/></svg>